<svg viewBox="0 0 240 130" width="1920" height="1040" xmlns="http://www.w3.org/2000/svg"><defs><linearGradient id="pg" x1="0" y1="0" x2="0" y2="1"><stop offset="0" stop-color="#5b91cf"/><stop offset=".5" stop-color="#2f5d96"/><stop offset="1" stop-color="#23436c"/></linearGradient><linearGradient id="bg" x1="0" y1="0" x2="0" y2="1"><stop offset="0" stop-color="#eef2f7"/><stop offset=".5" stop-color="#c2cad6"/><stop offset="1" stop-color="#98a4b4"/></linearGradient><radialGradient id="dg" cx=".5" cy=".4" r=".6"><stop offset="0" stop-color="#f4d99a"/><stop offset="1" stop-color="#c9962f"/></radialGradient></defs><circle cx="7" cy="68" r="0.7" fill="rgba(200,220,255,0.29)"/><circle cx="121" cy="26" r="0.8" fill="rgba(200,220,255,0.51)"/><circle cx="94" cy="104" r="0.4" fill="rgba(200,220,255,0.37)"/><circle cx="71" cy="102" r="0.5" fill="rgba(200,220,255,0.25)"/><circle cx="114" cy="8" r="0.9" fill="rgba(200,220,255,0.58)"/><circle cx="153" cy="1" r="0.9" fill="rgba(200,220,255,0.53)"/><circle cx="85" cy="118" r="0.4" fill="rgba(200,220,255,0.63)"/><circle cx="202" cy="103" r="1.0" fill="rgba(200,220,255,0.20)"/><circle cx="17" cy="59" r="0.5" fill="rgba(200,220,255,0.61)"/><circle cx="54" cy="102" r="0.3" fill="rgba(200,220,255,0.54)"/><circle cx="167" cy="89" r="0.8" fill="rgba(200,220,255,0.58)"/><circle cx="229" cy="121" r="0.6" fill="rgba(200,220,255,0.21)"/><circle cx="117" cy="116" r="0.9" fill="rgba(200,220,255,0.46)"/><circle cx="182" cy="94" r="0.9" fill="rgba(200,220,255,0.33)"/><rect x="18" y="50" width="40" height="28" rx="2" fill="url(#pg)" stroke="#79a6dd" stroke-width="1.1"/><line x1="28.0" y1="50" x2="28.0" y2="78" stroke="#22456e" stroke-width=".6"/><line x1="38.0" y1="50" x2="38.0" y2="78" stroke="#22456e" stroke-width=".6"/><line x1="48.0" y1="50" x2="48.0" y2="78" stroke="#22456e" stroke-width=".6"/><line x1="18" y1="64.0" x2="58" y2="64.0" stroke="#22456e" stroke-width=".6"/><rect x="18" y="50" width="40" height="4.5" rx="2" fill="rgba(255,255,255,0.22)"/><rect x="182" y="50" width="40" height="28" rx="2" fill="url(#pg)" stroke="#79a6dd" stroke-width="1.1"/><line x1="192.0" y1="50" x2="192.0" y2="78" stroke="#22456e" stroke-width=".6"/><line x1="202.0" y1="50" x2="202.0" y2="78" stroke="#22456e" stroke-width=".6"/><line x1="212.0" y1="50" x2="212.0" y2="78" stroke="#22456e" stroke-width=".6"/><line x1="182" y1="64.0" x2="222" y2="64.0" stroke="#22456e" stroke-width=".6"/><rect x="182" y="50" width="40" height="4.5" rx="2" fill="rgba(255,255,255,0.22)"/><rect x="92" y="50" width="36" height="30" rx="4" fill="url(#bg)" stroke="#7f8b9c" stroke-width="1.3"/><rect x="94" y="52" width="32" height="12.0" rx="2" fill="rgba(255,255,255,0.18)"/><path d="M150 44 a26 26 0 0 1 0 42 l-22 0 a30 24 0 0 1 0 -42 z" fill="url(#bg)" stroke="#7f8b9c" stroke-width="1.4"/><ellipse cx="150" cy="65" rx="5" ry="9" fill="#10151f" stroke="#aebccf" stroke-width="1"/><line x1="96" y1="58" x2="128" y2="58" stroke="#7f8b9c" stroke-width=".6"/><circle cx="108" cy="65" r="4" fill="#ffd27a"/></svg>
