<svg viewBox="0 0 240 130" width="1920" height="1040" xmlns="http://www.w3.org/2000/svg"><defs><linearGradient id="pg" x1="0" y1="0" x2="0" y2="1"><stop offset="0" stop-color="#5b91cf"/><stop offset=".5" stop-color="#2f5d96"/><stop offset="1" stop-color="#23436c"/></linearGradient><linearGradient id="bg" x1="0" y1="0" x2="0" y2="1"><stop offset="0" stop-color="#eef2f7"/><stop offset=".5" stop-color="#c2cad6"/><stop offset="1" stop-color="#98a4b4"/></linearGradient><radialGradient id="dg" cx=".5" cy=".4" r=".6"><stop offset="0" stop-color="#f4d99a"/><stop offset="1" stop-color="#c9962f"/></radialGradient></defs><circle cx="5" cy="124" r="0.8" fill="rgba(200,220,255,0.62)"/><circle cx="238" cy="102" r="0.8" fill="rgba(200,220,255,0.64)"/><circle cx="175" cy="6" r="0.6" fill="rgba(200,220,255,0.43)"/><circle cx="149" cy="114" r="0.8" fill="rgba(200,220,255,0.48)"/><circle cx="76" cy="97" r="0.9" fill="rgba(200,220,255,0.22)"/><circle cx="12" cy="1" r="0.7" fill="rgba(200,220,255,0.38)"/><circle cx="54" cy="7" r="0.3" fill="rgba(200,220,255,0.28)"/><circle cx="3" cy="10" r="0.6" fill="rgba(200,220,255,0.42)"/><circle cx="35" cy="93" r="0.7" fill="rgba(200,220,255,0.25)"/><circle cx="39" cy="70" r="0.4" fill="rgba(200,220,255,0.46)"/><circle cx="51" cy="101" r="0.7" fill="rgba(200,220,255,0.39)"/><circle cx="211" cy="115" r="1.0" fill="rgba(200,220,255,0.27)"/><circle cx="214" cy="106" r="1.1" fill="rgba(200,220,255,0.36)"/><circle cx="208" cy="102" r="0.5" fill="rgba(200,220,255,0.64)"/><rect x="10" y="44" width="62" height="30" rx="2" fill="url(#pg)" stroke="#79a6dd" stroke-width="1.1"/><line x1="20.3" y1="44" x2="20.3" y2="74" stroke="#22456e" stroke-width=".6"/><line x1="30.7" y1="44" x2="30.7" y2="74" stroke="#22456e" stroke-width=".6"/><line x1="41.0" y1="44" x2="41.0" y2="74" stroke="#22456e" stroke-width=".6"/><line x1="51.3" y1="44" x2="51.3" y2="74" stroke="#22456e" stroke-width=".6"/><line x1="61.7" y1="44" x2="61.7" y2="74" stroke="#22456e" stroke-width=".6"/><line x1="10" y1="59.0" x2="72" y2="59.0" stroke="#22456e" stroke-width=".6"/><rect x="10" y="44" width="62" height="4.8" rx="2" fill="rgba(255,255,255,0.22)"/><rect x="168" y="44" width="62" height="30" rx="2" fill="url(#pg)" stroke="#79a6dd" stroke-width="1.1"/><line x1="178.3" y1="44" x2="178.3" y2="74" stroke="#22456e" stroke-width=".6"/><line x1="188.7" y1="44" x2="188.7" y2="74" stroke="#22456e" stroke-width=".6"/><line x1="199.0" y1="44" x2="199.0" y2="74" stroke="#22456e" stroke-width=".6"/><line x1="209.3" y1="44" x2="209.3" y2="74" stroke="#22456e" stroke-width=".6"/><line x1="219.7" y1="44" x2="219.7" y2="74" stroke="#22456e" stroke-width=".6"/><line x1="168" y1="59.0" x2="230" y2="59.0" stroke="#22456e" stroke-width=".6"/><rect x="168" y="44" width="62" height="4.8" rx="2" fill="rgba(255,255,255,0.22)"/><rect x="98" y="40" width="44" height="38" rx="4" fill="url(#bg)" stroke="#7f8b9c" stroke-width="1.3"/><rect x="100" y="42" width="40" height="15.2" rx="2" fill="rgba(255,255,255,0.18)"/><line x1="98" y1="58" x2="142" y2="58" stroke="#7f8b9c" stroke-width=".6"/><rect x="104" y="46" width="14" height="10" rx="1" fill="#10151f" stroke="#aebccf" stroke-width=".6"/><line x1="120" y1="76" x2="120" y2="92" stroke="#aebccf" stroke-width="2"/><rect x="111" y="90" width="18" height="5" rx="1" fill="#ffd27a"/></svg>
