<svg viewBox="0 0 240 130" width="1920" height="1040" xmlns="http://www.w3.org/2000/svg"><defs><linearGradient id="pg" x1="0" y1="0" x2="0" y2="1"><stop offset="0" stop-color="#5b91cf"/><stop offset=".5" stop-color="#2f5d96"/><stop offset="1" stop-color="#23436c"/></linearGradient><linearGradient id="bg" x1="0" y1="0" x2="0" y2="1"><stop offset="0" stop-color="#eef2f7"/><stop offset=".5" stop-color="#c2cad6"/><stop offset="1" stop-color="#98a4b4"/></linearGradient><radialGradient id="dg" cx=".5" cy=".4" r=".6"><stop offset="0" stop-color="#f4d99a"/><stop offset="1" stop-color="#c9962f"/></radialGradient></defs><circle cx="111" cy="19" r="0.9" fill="rgba(200,220,255,0.29)"/><circle cx="10" cy="88" r="1.0" fill="rgba(200,220,255,0.64)"/><circle cx="109" cy="6" r="1.0" fill="rgba(200,220,255,0.29)"/><circle cx="153" cy="106" r="0.5" fill="rgba(200,220,255,0.48)"/><circle cx="158" cy="71" r="0.7" fill="rgba(200,220,255,0.40)"/><circle cx="187" cy="116" r="0.7" fill="rgba(200,220,255,0.49)"/><circle cx="204" cy="80" r="0.9" fill="rgba(200,220,255,0.32)"/><circle cx="42" cy="20" r="1.0" fill="rgba(200,220,255,0.33)"/><circle cx="159" cy="14" r="0.7" fill="rgba(200,220,255,0.44)"/><circle cx="150" cy="127" r="0.9" fill="rgba(200,220,255,0.49)"/><circle cx="57" cy="66" r="0.5" fill="rgba(200,220,255,0.25)"/><circle cx="163" cy="79" r="0.3" fill="rgba(200,220,255,0.35)"/><circle cx="182" cy="123" r="0.9" fill="rgba(200,220,255,0.38)"/><circle cx="83" cy="63" r="0.6" fill="rgba(200,220,255,0.23)"/><rect x="6" y="42" width="46" height="30" rx="2" fill="url(#pg)" stroke="#79a6dd" stroke-width="1.1"/><line x1="17.5" y1="42" x2="17.5" y2="72" stroke="#22456e" stroke-width=".6"/><line x1="29.0" y1="42" x2="29.0" y2="72" stroke="#22456e" stroke-width=".6"/><line x1="40.5" y1="42" x2="40.5" y2="72" stroke="#22456e" stroke-width=".6"/><line x1="6" y1="57.0" x2="52" y2="57.0" stroke="#22456e" stroke-width=".6"/><rect x="6" y="42" width="46" height="4.8" rx="2" fill="rgba(255,255,255,0.22)"/><rect x="188" y="42" width="46" height="30" rx="2" fill="url(#pg)" stroke="#79a6dd" stroke-width="1.1"/><line x1="199.5" y1="42" x2="199.5" y2="72" stroke="#22456e" stroke-width=".6"/><line x1="211.0" y1="42" x2="211.0" y2="72" stroke="#22456e" stroke-width=".6"/><line x1="222.5" y1="42" x2="222.5" y2="72" stroke="#22456e" stroke-width=".6"/><line x1="188" y1="57.0" x2="234" y2="57.0" stroke="#22456e" stroke-width=".6"/><rect x="188" y="42" width="46" height="4.8" rx="2" fill="rgba(255,255,255,0.22)"/><line x1="52" y1="65" x2="188" y2="65" stroke="#aebccf" stroke-width="3.4"/><rect x="80" y="54" width="16" height="22" rx="2" fill="url(#bg)" stroke="#7f8b9c" stroke-width="1"/><rect x="96" y="50" width="30" height="30" rx="4" fill="url(#bg)" stroke="#7f8b9c" stroke-width="1.3"/><rect x="98" y="52" width="26" height="12.0" rx="2" fill="rgba(255,255,255,0.18)"/><rect x="126" y="56" width="26" height="18" rx="3" fill="url(#bg)" stroke="#7f8b9c" stroke-width="1.3"/><rect x="128" y="58" width="22" height="7.2" rx="2" fill="rgba(255,255,255,0.18)"/><rect x="116" y="35" width="5" height="15" fill="#d2d9e4"/><rect x="86" y="84" width="30" height="16" rx="2" fill="url(#pg)" stroke="#79a6dd" stroke-width="1.1"/><line x1="96.0" y1="84" x2="96.0" y2="100" stroke="#22456e" stroke-width=".6"/><line x1="106.0" y1="84" x2="106.0" y2="100" stroke="#22456e" stroke-width=".6"/><line x1="86" y1="92.0" x2="116" y2="92.0" stroke="#22456e" stroke-width=".6"/><rect x="86" y="84" width="30" height="2.6" rx="2" fill="rgba(255,255,255,0.22)"/><rect x="132" y="84" width="30" height="16" rx="2" fill="url(#pg)" stroke="#79a6dd" stroke-width="1.1"/><line x1="142.0" y1="84" x2="142.0" y2="100" stroke="#22456e" stroke-width=".6"/><line x1="152.0" y1="84" x2="152.0" y2="100" stroke="#22456e" stroke-width=".6"/><line x1="132" y1="92.0" x2="162" y2="92.0" stroke="#22456e" stroke-width=".6"/><rect x="132" y="84" width="30" height="2.6" rx="2" fill="rgba(255,255,255,0.22)"/><circle cx="111" cy="65" r="4.5" fill="#ffd27a"/></svg>
