<svg viewBox="0 0 240 130" width="1920" height="1040" xmlns="http://www.w3.org/2000/svg"><defs><linearGradient id="pg" x1="0" y1="0" x2="0" y2="1"><stop offset="0" stop-color="#5b91cf"/><stop offset=".5" stop-color="#2f5d96"/><stop offset="1" stop-color="#23436c"/></linearGradient><linearGradient id="bg" x1="0" y1="0" x2="0" y2="1"><stop offset="0" stop-color="#eef2f7"/><stop offset=".5" stop-color="#c2cad6"/><stop offset="1" stop-color="#98a4b4"/></linearGradient><radialGradient id="dg" cx=".5" cy=".4" r=".6"><stop offset="0" stop-color="#f4d99a"/><stop offset="1" stop-color="#c9962f"/></radialGradient></defs><circle cx="91" cy="74" r="0.6" fill="rgba(200,220,255,0.21)"/><circle cx="216" cy="110" r="0.4" fill="rgba(200,220,255,0.45)"/><circle cx="185" cy="75" r="0.9" fill="rgba(200,220,255,0.40)"/><circle cx="122" cy="113" r="0.3" fill="rgba(200,220,255,0.25)"/><circle cx="174" cy="82" r="0.7" fill="rgba(200,220,255,0.60)"/><circle cx="173" cy="56" r="0.3" fill="rgba(200,220,255,0.33)"/><circle cx="38" cy="88" r="0.6" fill="rgba(200,220,255,0.59)"/><circle cx="177" cy="27" r="1.1" fill="rgba(200,220,255,0.33)"/><circle cx="87" cy="86" r="0.5" fill="rgba(200,220,255,0.45)"/><circle cx="184" cy="15" r="1.0" fill="rgba(200,220,255,0.61)"/><circle cx="75" cy="77" r="0.7" fill="rgba(200,220,255,0.31)"/><circle cx="180" cy="47" r="0.7" fill="rgba(200,220,255,0.64)"/><circle cx="159" cy="83" r="0.9" fill="rgba(200,220,255,0.20)"/><circle cx="5" cy="123" r="0.7" fill="rgba(200,220,255,0.22)"/><rect x="24" y="48" width="38" height="32" rx="2" fill="url(#pg)" stroke="#79a6dd" stroke-width="1.1"/><line x1="36.7" y1="48" x2="36.7" y2="80" stroke="#22456e" stroke-width=".6"/><line x1="49.3" y1="48" x2="49.3" y2="80" stroke="#22456e" stroke-width=".6"/><line x1="24" y1="64.0" x2="62" y2="64.0" stroke="#22456e" stroke-width=".6"/><rect x="24" y="48" width="38" height="5.1" rx="2" fill="rgba(255,255,255,0.22)"/><rect x="178" y="48" width="38" height="32" rx="2" fill="url(#pg)" stroke="#79a6dd" stroke-width="1.1"/><line x1="190.7" y1="48" x2="190.7" y2="80" stroke="#22456e" stroke-width=".6"/><line x1="203.3" y1="48" x2="203.3" y2="80" stroke="#22456e" stroke-width=".6"/><line x1="178" y1="64.0" x2="216" y2="64.0" stroke="#22456e" stroke-width=".6"/><rect x="178" y="48" width="38" height="5.1" rx="2" fill="rgba(255,255,255,0.22)"/><rect x="84" y="40" width="74" height="48" rx="12" fill="url(#bg)" stroke="#7f8b9c" stroke-width="1.4"/><ellipse cx="158" cy="64" rx="7" ry="24" fill="#0c1019" stroke="#aebccf" stroke-width="1.2"/><ellipse cx="158" cy="64" rx="3" ry="12" fill="#1b2740"/><rect x="92" y="50" width="40" height="28" rx="4" fill="none" stroke="#aebccf" stroke-width=".6"/><line x1="120" y1="40" x2="120" y2="30" stroke="#aebccf" stroke-width="1.4"/></svg>
