<svg xmlns="http://www.w3.org/2000/svg" width="256" height="256"
     viewBox="0 0 256 256" role="img" aria-label="Orbital Traffic">
  <title>Orbital Traffic</title>
  <defs><linearGradient id="mk" gradientUnits="userSpaceOnUse" x1="4" y1="4" x2="60" y2="60"><stop offset="0%" stop-color="#eef1f8"/><stop offset="45%" stop-color="#5eead4"/><stop offset="100%" stop-color="#a78bfa"/></linearGradient></defs>
  <rect width="256" height="256" fill="#07080f"/>
  <g transform="translate(32.0,32.0) scale(3.0)">
    <g transform="rotate(-22 32 32)">
      <rect x="6.5" y="25.5" width="17" height="9" rx="1.4" fill="url(#mk)"/>
      <rect x="40.5" y="25.5" width="17" height="9" rx="1.4" fill="url(#mk)"/>
      <g fill="none" stroke="#0b1020" stroke-opacity=".3" stroke-width=".7">
        <path d="M6.5 30h17M40.5 30h17"/>
        <path d="M12.2 26.2v7.6M17.8 26.2v7.6M46.2 26.2v7.6M51.8 26.2v7.6"/>
      </g>
      <rect x="23.2" y="29.35" width="3.2" height="1.1" rx=".55" fill="#cbd5e1"/>
      <rect x="37.6" y="29.35" width="3.2" height="1.1" rx=".55" fill="#cbd5e1"/>
      <rect x="31.55" y="35" width=".9" height="3.6" rx=".45" fill="#cbd5e1"/>
      <rect x="29.4" y="38.2" width="5.2" height="1.7" rx=".75" fill="#f5c168"/>
      <rect x="26" y="24.2" width="12" height="10.8" rx="1.8" fill="#eef1f8"/>
      <path d="M26 29.3h12v3.9a1.8 1.8 0 0 1-1.8 1.8H27.8a1.8 1.8 0 0 1-1.8-1.8Z" fill="#c3ccd8"/>
      <rect x="27.9" y="26.1" width="4.2" height="2.3" rx=".5" fill="#0b1020"/>
    </g>
  </g>
</svg>
